<?xml version="1.0" encoding="UTF-8" standalone="no"?><!DOCTYPE svg PUBLIC "-//W3C//DTD SVG 1.1//EN" "http://www.w3.org/Graphics/SVG/1.1/DTD/svg11.dtd"><svg width="100%" height="100%" viewBox="0 0 200 200" version="1.1" xmlns="http://www.w3.org/2000/svg" xmlns:xlink="http://www.w3.org/1999/xlink" xml:space="preserve" xmlns:serif="http://www.serif.com/" style="fill-rule:evenodd;clip-rule:evenodd;stroke-linejoin:round;stroke-miterlimit:2;"><g><path d="M158.69,100l-76.368,76.368l-76.367,-76.368l76.367,-76.368l76.368,76.368Zm-141.421,0l65.053,65.054l65.054,-65.054l-65.054,-65.054l-65.053,65.054Z" style="fill:#fff;"/><path d="M105.657,46.967l-76.368,76.368l-5.657,-5.657l76.368,-76.368l5.657,5.657Z" style="fill:#fff;"/><path d="M123.335,64.645l-76.368,76.367l-5.657,-5.657l76.368,-76.367l5.657,5.657Z" style="fill:#fff;"/><path d="M141.012,82.322l-76.367,76.368l-5.657,-5.657l76.367,-76.368l5.657,5.657Z" style="fill:#fff;"/><path d="M194.045,100l-76.367,76.368l-23.335,-23.335l53.033,-53.033l-53.033,-53.033l23.335,-23.335l76.367,76.368Zm-88.388,-53.033l53.033,53.033l-53.033,53.033l12.021,12.021l65.053,-65.054l-65.053,-65.054l-12.021,12.021Z" style="fill:#fff;"/></g></svg>