<svg viewBox="0 0 400 400" xmlns="http://www.w3.org/2000/svg" xml:space="preserve" style="fill-rule:evenodd;clip-rule:evenodd;stroke-linejoin:round;stroke-miterlimit:2"><path d="M212.652 363.143c-1.839 0-3.41-.346-4.714-1.038a9.835 9.835 0 0 1-3.304-2.843l2.213-1.988c.791 1.026 1.663 1.801 2.614 2.325.951.524 2.058.786 3.319.786 1.54 0 2.705-.356 3.496-1.068.791-.712 1.187-1.663 1.187-2.853 0-.977-.289-1.742-.866-2.295-.577-.552-1.572-.977-2.983-1.275l-1.892-.382c-2.117-.429-3.715-1.14-4.795-2.136-1.079-.996-1.619-2.371-1.619-4.127 0-.984.182-1.867.545-2.649a5.472 5.472 0 0 1 1.539-1.975c.663-.535 1.46-.942 2.39-1.22.93-.278 1.972-.418 3.127-.418 1.689 0 3.143.309 4.361.925 1.219.617 2.256 1.506 3.111 2.667l-2.277 1.828a6.925 6.925 0 0 0-2.165-1.94c-.844-.481-1.908-.721-3.191-.721-1.368 0-2.437.286-3.207.859-.77.574-1.154 1.412-1.154 2.517 0 .998.315 1.746.946 2.245.63.499 1.619.897 2.966 1.195l1.892.385c2.203.492 3.812 1.241 4.827 2.247 1.016 1.006 1.524 2.376 1.524 4.11 0 1.027-.177 1.964-.53 2.809a5.906 5.906 0 0 1-1.539 2.168c-.674.599-1.502 1.059-2.486 1.38-.983.321-2.095.482-3.335.482Zm36.85 0c-1.839 0-3.41-.346-4.715-1.038a9.84 9.84 0 0 1-3.303-2.843l2.213-1.988c.791 1.026 1.662 1.801 2.614 2.325.951.524 2.058.786 3.319.786 1.54 0 2.705-.356 3.496-1.068.791-.712 1.186-1.663 1.186-2.853 0-.977-.288-1.742-.865-2.295-.578-.552-1.572-.977-2.983-1.275l-1.892-.382c-2.117-.429-3.715-1.14-4.795-2.136-1.08-.996-1.619-2.371-1.619-4.127 0-.984.181-1.867.545-2.649a5.46 5.46 0 0 1 1.539-1.975c.663-.535 1.459-.942 2.389-1.22.931-.278 1.973-.418 3.127-.418 1.689 0 3.143.309 4.362.925 1.219.617 2.256 1.506 3.111 2.667l-2.277 1.828a6.936 6.936 0 0 0-2.165-1.94c-.844-.481-1.908-.721-3.191-.721-1.368 0-2.437.286-3.207.859-.77.574-1.155 1.412-1.155 2.517 0 .998.316 1.746.946 2.245.631.499 1.62.897 2.967 1.195l1.892.385c2.202.492 3.811 1.241 4.827 2.247 1.016 1.006 1.523 2.376 1.523 4.11 0 1.027-.176 1.964-.529 2.809a5.917 5.917 0 0 1-1.539 2.168c-.674.599-1.502 1.059-2.486 1.38-.983.321-2.095.482-3.335.482Zm-121.518 0c-1.839 0-3.41-.346-4.714-1.038a9.844 9.844 0 0 1-3.304-2.843l2.213-1.988c.791 1.026 1.663 1.801 2.614 2.325.952.524 2.058.786 3.32.786 1.539 0 2.704-.356 3.495-1.068.791-.712 1.187-1.663 1.187-2.853 0-.977-.289-1.742-.866-2.295-.577-.552-1.572-.977-2.983-1.275l-1.892-.382c-2.117-.429-3.715-1.14-4.794-2.136-1.08-.996-1.62-2.371-1.62-4.127 0-.984.182-1.867.545-2.649a5.474 5.474 0 0 1 1.54-1.975c.662-.535 1.459-.942 2.389-1.22.93-.278 1.972-.418 3.127-.418 1.689 0 3.143.309 4.361.925 1.219.617 2.256 1.506 3.111 2.667l-2.277 1.828a6.932 6.932 0 0 0-2.164-1.94c-.845-.481-1.909-.721-3.192-.721-1.368 0-2.437.286-3.207.859-.769.574-1.154 1.412-1.154 2.517 0 .998.315 1.746.946 2.245.631.499 1.619.897 2.966 1.195l1.893.385c2.202.492 3.811 1.241 4.826 2.247 1.016 1.006 1.524 2.376 1.524 4.11 0 1.027-.177 1.964-.529 2.809a5.908 5.908 0 0 1-1.54 2.168c-.673.599-1.502 1.059-2.485 1.38-.984.321-2.096.482-3.336.482Zm39.897-3.69h-.129c-.235 1.061-.887 1.941-1.956 2.64-1.069.7-2.459 1.05-4.169 1.05-1.347 0-2.593-.251-3.736-.754a7.936 7.936 0 0 1-2.935-2.213c-.812-.973-1.448-2.175-1.908-3.608-.46-1.432-.69-3.089-.69-4.971 0-1.86.23-3.512.69-4.955.46-1.443 1.112-2.656 1.956-3.64a8.324 8.324 0 0 1 3.047-2.245c1.187-.513 2.507-.77 3.961-.77 2.01 0 3.699.444 5.067 1.332 1.368.888 2.427 2.09 3.175 3.607l-2.566 1.508c-.491-1.133-1.213-2.031-2.164-2.694-.952-.663-2.123-.994-3.512-.994-.941 0-1.802.161-2.582.482a5.61 5.61 0 0 0-2.004 1.384c-.556.601-.984 1.336-1.283 2.205-.3.869-.449 1.841-.449 2.914v3.637c0 1.073.149 2.044.449 2.913.299.869.732 1.609 1.299 2.221a5.602 5.602 0 0 0 2.052 1.4c.802.322 1.705.483 2.71.483.748 0 1.454-.097 2.117-.29a5.245 5.245 0 0 0 1.732-.854 4.042 4.042 0 0 0 1.17-1.434c.289-.58.433-1.257.433-2.031v-2.03h-4.778v-2.694h7.793v11.706h-2.79v-3.305Zm148.104-14.783h-.16l-1.828 3.688-5.131 9.397-5.132-9.397-1.828-3.688h-.16v18.088h-3.015v-22.386h3.913l6.222 11.77h.128l6.222-11.77H319v22.386h-3.015V344.67Zm-86.239 18.088v-8.82l-7.697-13.566h3.56l5.741 10.423h.096l5.708-10.423h3.464l-7.761 13.47v8.916h-3.111Zm-47.69-12.251-3.079-5.613h-.096v17.864h-3.015v-22.386h3.464l7.344 12.251 3.079 5.613h.096v-17.864h3.015v22.386H189.4l-7.344-12.251Zm87.266-7.377v19.628h-3.111V343.13h-6.927v-2.758h16.965v2.758h-6.927ZM102.68 362.758v-22.386h13.951v2.758h-10.84v6.928h10.038v2.758h-10.038V360h10.84v2.758H102.68Zm177.193 0v-22.386h13.951v2.758h-10.84v6.928h10.038v2.758h-10.038V360h10.84v2.758h-13.951Zm-140.504 0v-2.63h3.111v-17.126h-3.111v-2.63h9.333v2.63h-3.111v17.126h3.111v2.63h-9.333ZM81 340.372h7.665c1.411 0 2.694.236 3.849.706a7.726 7.726 0 0 1 2.95 2.101c.813.93 1.438 2.095 1.876 3.495.439 1.401.658 3.031.658 4.891 0 1.86-.219 3.491-.658 4.891-.438 1.4-1.063 2.566-1.876 3.496a7.734 7.734 0 0 1-2.95 2.1c-1.155.471-2.438.706-3.849.706H81v-22.386ZM88.665 360c.898 0 1.71-.144 2.437-.433a5.223 5.223 0 0 0 1.893-1.283c.534-.567.946-1.261 1.234-2.085.289-.823.433-1.769.433-2.838v-3.592c0-1.069-.144-2.015-.433-2.838-.288-.823-.7-1.518-1.234-2.085a5.236 5.236 0 0 0-1.893-1.283c-.727-.288-1.539-.433-2.437-.433h-4.554V360h4.554Zm146.549-35.663c-3.319 0-6.35-.553-9.092-1.66-2.742-1.106-5.075-2.754-7-4.943-1.924-2.189-3.415-4.907-4.474-8.154-1.058-3.247-1.587-7.012-1.587-11.293 0-4.282.529-8.046 1.587-11.293 1.059-3.247 2.55-5.965 4.474-8.154 1.925-2.189 4.258-3.837 7-4.943 2.742-1.107 5.773-1.66 9.092-1.66 3.319 0 6.35.553 9.092 1.66 2.742 1.106 5.076 2.754 7 4.943 1.924 2.189 3.415 4.907 4.474 8.154 1.058 3.247 1.587 7.011 1.587 11.293 0 4.281-.529 8.046-1.587 11.293-1.059 3.247-2.55 5.965-4.474 8.154-1.924 2.189-4.258 3.837-7 4.943-2.742 1.107-5.773 1.66-9.092 1.66Zm-58.089-.866h-12.7l-10.896-18.545h-.217l-10.607 18.545h-11.834l16.163-26.05-15.37-24.318h12.773l9.814 17.03h.216l9.958-17.03h11.834l-15.514 24.535 16.38 25.833Zm127.074-33.049h-.216l-3.68 7.36-9.814 17.823-9.598-17.751-3.824-7.938h-.217v33.555h-10.318v-50.368h11.617l12.34 23.596h.144l12.195-23.596h11.69v50.368h-10.319v-33.049Zm-187.688 33.049-3.608-11.979H96.089l-3.608 11.979H81.369l16.597-50.368h13.566l16.38 50.368h-11.401Zm65.377 0v-8.732h6.494v-32.905h-6.494v-8.731h23.957v8.731h-6.494v32.905h6.494v8.732h-23.957Zm53.326-8.876c3.319 0 5.905-1.082 7.757-3.247 1.852-2.165 2.778-5.268 2.778-9.309v-7.504c0-4.041-.926-7.144-2.778-9.309-1.852-2.165-4.438-3.247-7.757-3.247s-5.905 1.082-7.757 3.247c-1.852 2.165-2.778 5.268-2.778 9.309v7.504c0 4.041.926 7.144 2.778 9.309 1.852 2.165 4.438 3.247 7.757 3.247Zm-130.61-31.534h-.36l-5.557 19.123h11.546l-5.629-19.123ZM319 132.842l-96.631 96.661L200 207.128l-22.369 22.375-67.105-67.126v.001l-7.158-7.16v-.001L81 132.842l96.631-96.661L200 58.556l22.369-22.375L319 132.842Zm-74.263-15.215 15.21 15.215-82.316 82.341-15.21-15.215 82.316-82.341Zm-37.579-51.91 67.105 67.125-67.105 67.126 15.211 15.215 82.315-82.341-82.315-82.341-15.211 15.216Zm-67.106 111.875 15.211 15.216 82.315-82.341-15.209-15.215-82.317 82.34Zm-22.368-22.375 15.21 15.215 82.317-82.34L200 72.877l-82.316 82.34Zm75.158-89.5-15.211-15.216-82.315 82.341 15.21 15.215 82.316-82.34Z" style="fill:#fff"/></svg>